<svg xmlns="http://www.w3.org/2000/svg" x="0px" y="0px" width="100" height="100" viewBox="0,0,256,256">
<g fill="#000000" fill-rule="nonzero" stroke="none" stroke-width="1" stroke-linecap="butt" stroke-linejoin="miter" stroke-miterlimit="10" stroke-dasharray="" stroke-dashoffset="0" font-family="none" font-weight="none" font-size="none" text-anchor="none" style="mix-blend-mode: normal"><g transform="scale(5.12,5.12)"><path d="M13,4c-4.962,0 -9,4.037 -9,9v24c0,4.963 4.038,9 9,9h24c4.962,0 9,-4.037 9,-9v-24c0,-4.963 -4.038,-9 -9,-9zM13,6h24c3.86,0 7,3.141 7,7v24c0,3.859 -3.14,7 -7,7h-24c-3.86,0 -7,-3.141 -7,-7v-24c0,-3.859 3.14,-7 7,-7zM38.00195,16.83984c-1.509,0 -2.48047,0.72367 -2.48047,1.88867c0,0.9 0.56539,1.56083 1.65039,1.79883l1.12109,0.24805c0.715,0.159 0.97852,0.4402 0.97852,0.9082c0,0.574 -0.43187,0.89063 -1.29687,0.89063c-0.979,0 -1.48213,-0.38791 -1.70312,-1.12891l-0.11523,-0.37891h-0.63477v1.73047c0.807,0.402 1.70152,0.59727 2.60352,0.57227c1.482,0 2.45313,-0.74048 2.45313,-1.89648c-0.001,-0.972 -0.59213,-1.64244 -1.70312,-1.89844l-1.12109,-0.25586c-0.653,-0.15 -0.92578,-0.40589 -0.92578,-0.83789c0,-0.521 0.41556,-0.8457 1.22656,-0.8457c0.811,0 1.28666,0.29051 1.47266,0.97852l0.08008,0.29883h0.63477v-1.52539c-0.693,-0.357 -1.46023,-0.54387 -2.24023,-0.54687zM9.16016,17.01563v0.76758h0.70703l1.55273,5.41016h1.22656l1.28711,-4.48242l1.25391,4.48242h1.22461l1.54492,-5.41016h1.2168v4.64258h-0.75v0.76758h5.30273v-2.10937h-0.63477l-0.07227,0.31055c-0.177,0.785 -0.43186,1.03125 -1.00586,1.03125h-1.52539v-1.91406h1.77344c0.068,-0.137 0.10266,-0.28841 0.09766,-0.44141c0.004,-0.148 -0.03066,-0.29283 -0.09766,-0.42383h-1.77344v-1.86328h1.46484c0.591,0 0.79428,0.25705 0.98828,0.99805l0.0625,0.23828h0.63477v-2.00391h-7.48242v0.76758h0.86523l-1.01367,3.73242l-1.26367,-4.5h-1.26953l-1.23437,4.49219l-1.0332,-3.72461h0.83008v-0.76758zM24.36914,17.01563v0.76758h0.75v4.64063h-0.75v0.76758h5.00391v-2.10937h-0.63477l-0.07031,0.31055c-0.177,0.785 -0.42581,1.03125 -1.00781,1.03125h-1.22461v-4.64062h0.83789v-0.76758zM29.92773,17.01563v0.76758h0.75v4.64063h-0.75v0.76758h5.00391v-2.10937h-0.63477l-0.07227,0.31055c-0.176,0.785 -0.42386,1.03125 -1.00586,1.03125h-1.22656v-4.64062h0.83789v-0.76758zM30.56641,26.48242c-1.941,0 -3.24609,1.2982 -3.24609,3.2832c0,1.994 1.27009,3.26367 3.24609,3.26367c0.863,-0.023 1.7097,-0.24534 2.4707,-0.65234v-2.75391h-2.34766c-0.068,0.127 -0.0997,0.27006 -0.0957,0.41406c-0.006,0.15 0.0267,0.30059 0.0957,0.43359h1.05078v1.56055c-0.33,0.136 -0.68402,0.20513 -1.04102,0.20313c-1.27,0 -1.93164,-0.90852 -1.93164,-2.47852c0,-1.57 0.66133,-2.47852 1.86133,-2.47852c0.703,-0.036 1.34092,0.41098 1.54492,1.08398l0.0957,0.24805h0.63477v-1.58008c-0.726,-0.364 -1.52689,-0.55088 -2.33789,-0.54687zM37.13281,26.48438c-1.809,0 -3.27525,1.46248 -3.28125,3.27148c0.005,1.809 1.47225,3.27148 3.28125,3.27148c1.809,0 3.27525,-1.46249 3.28125,-3.27148c-0.005,-1.809 -1.47225,-3.27148 -3.28125,-3.27148zM9.95508,26.67578v0.76758h0.75v4.64258h-0.75v0.76758h2.94727v-0.76758h-0.88281v-1.80078h1.81836c0.068,-0.137 0.10266,-0.28841 0.09766,-0.44141c0.004,-0.147 -0.03066,-0.29283 -0.09766,-0.42383h-1.81836v-1.97656h1.57031c0.591,0 0.79428,0.25705 0.98828,0.99805l0.0625,0.23828h0.63477v-2.00391zM17.18164,26.67773l-2.16211,5.4082h-0.61914v0.76758h2.33789v-0.76758h-0.74023l0.40625,-1.10352h2.29297l0.40625,1.10352h-0.72266v0.76758h5.54883v-0.76758h-0.83789v-1.87891h0.48438c0.971,0 1.26314,0.34337 1.36914,1.23438l0.03516,0.31055c0.097,0.82 0.51119,1.17188 1.36719,1.17188c0.23,0 0.4595,-0.01297 0.6875,-0.04297c0.106,-0.23 0.106,-0.49461 0,-0.72461c-0.061,0.011 -0.12255,0.01758 -0.18555,0.01758c-0.406,0 -0.51145,-0.23019 -0.56445,-0.74219l-0.03516,-0.32617c-0.08,-0.697 -0.40598,-1.14699 -1.20898,-1.20898v-0.02539c0.794,-0.036 1.61523,-0.5655 1.61523,-1.5625c0,-1.006 -0.82003,-1.63086 -2.08203,-1.63086h-3.54687v0.76758h0.75v4.64063h-1.2168l-2.20703,-5.4082zM37.13281,27.28516c1.191,0 1.83594,0.9087 1.83594,2.4707c0,1.57 -0.63594,2.4707 -1.83594,2.4707c-1.2,0 -1.83398,-0.9007 -1.83398,-2.4707c0,-1.561 0.64298,-2.4707 1.83398,-2.4707zM23.0918,27.44336h1.04102c0.794,0 1.19141,0.34428 1.19141,0.98828c0,0.636 -0.40641,0.99805 -1.19141,0.99805h-1.04102zM17.55078,27.89453l0.86523,2.33789h-1.73047z"></path></g></g>
</svg>